<svg width="89" height="150" viewBox="0 0 89 150" fill="none" xmlns="http://www.w3.org/2000/svg">
<path d="M88.9347 26.1253V55.0076C88.9347 55.9078 87.997 56.4329 87.2093 55.9828L81.5079 52.682L79.8575 51.7067L74.6812 48.706C74.3436 48.4809 74.1185 48.1058 74.1185 47.7307V34.64C74.1185 34.2274 73.8935 33.8523 73.5559 33.6647L50.3376 20.2364L45.0488 17.1981C44.7112 16.9731 44.2611 16.9731 43.9235 17.1981L43.4734 17.4607L15.4163 33.6647C15.0788 33.8898 14.8537 34.2649 14.8537 34.64V55.0451C14.8537 56.2829 15.8665 57.2956 17.1043 57.2956H62.7907C62.9782 57.2956 63.1658 57.3331 63.3533 57.4457L67.9295 60.0713L69.5049 60.9716L74.1185 63.6347L85.0713 69.9363C86.084 70.5365 85.6714 72.0743 84.5086 72.0743H2.25056C1.01275 72.0743 0 71.0616 0 69.8238V26.1253C0 25.7127 0.225056 25.3376 0.562641 25.1501L14.8162 16.9355L29.6324 8.38341L43.886 0.168853C44.2235 -0.056203 44.6737 -0.056203 45.0112 0.168853L59.2648 8.38341L74.081 16.9355L88.3346 25.1501C88.7097 25.3376 88.9347 25.7127 88.9347 26.1253Z" fill="#0096C7"/>
<path d="M81.5077 35.015V50.8065C81.5077 51.6692 80.57 52.1943 79.8573 51.7817L74.681 48.7809C74.3434 48.5559 74.1184 48.1808 74.1184 47.8057V34.7149C74.1184 34.3023 73.8933 33.9272 73.5557 33.7397L50.3374 20.3113L45.0486 17.2731C44.711 17.048 44.2609 17.048 43.9233 17.2731L43.4732 17.5356L46.9241 15.4726C47.2617 15.2476 47.7118 15.2476 48.0493 15.4726L81.0201 34.1148C81.3202 34.2648 81.5077 34.6024 81.5077 35.015Z" fill="#0077B6"/>
<path d="M69.5049 61.0465H15.904C15.3039 61.0465 14.7787 60.5589 14.7787 59.9212V55.0825C14.7787 56.3203 15.7915 57.3331 17.0293 57.3331H62.7157C62.9033 57.3331 63.0908 57.3706 63.2784 57.4831L67.8545 60.1088L69.5049 61.0465Z" fill="#0077B6"/>
<path d="M0 123.837L0 94.9549C0 94.0546 0.937731 93.5295 1.72543 93.9796L7.42686 97.2804L9.07727 98.2557L14.2536 101.256C14.5911 101.481 14.8162 101.857 14.8162 102.232V115.285C14.8162 115.698 15.0413 116.073 15.3788 116.26L38.5972 129.689L43.886 132.727C44.2236 132.952 44.6737 132.952 45.0113 132.727L45.4614 132.464L73.5184 116.26C73.856 116.035 74.081 115.66 74.081 115.285V94.8798C74.081 93.642 73.0683 92.6293 71.8305 92.6293H26.144C25.9565 92.6293 25.7689 92.5918 25.5814 92.4792L21.0053 89.8536L19.4299 88.9534L14.8162 86.2902L3.86347 79.9886C2.85071 79.3885 3.26332 77.8506 4.42611 77.8506H86.6467C87.8845 77.8506 88.8972 78.8633 88.8972 80.1011V123.875C88.8972 124.287 88.6722 124.662 88.3346 124.85L74.081 133.064L59.2648 141.617L45.0113 149.831C44.6737 150.056 44.2236 150.056 43.886 149.831L29.6324 141.617L14.8162 133.064L0.562641 124.85C0.187547 124.625 0 124.25 0 123.837Z" fill="#0096C7"/>
<path d="M7.38922 114.985L7.38922 99.1935C7.38922 98.3308 8.32695 97.8057 9.03963 98.2183L14.2159 101.219C14.5535 101.444 14.7786 101.819 14.7786 102.194V115.285C14.7786 115.698 15.0036 116.073 15.3412 116.26L38.5595 129.689L43.8483 132.727C44.1859 132.952 44.636 132.952 44.9736 132.727L45.4237 132.464L41.9729 134.527C41.6353 134.752 41.1852 134.752 40.8476 134.527L7.95186 115.923C7.61428 115.735 7.38922 115.36 7.38922 114.985Z" fill="#0077B6"/>
<path d="M19.4298 88.916H72.9932C73.5933 88.916 74.1185 89.4036 74.1185 90.0413V94.88C74.1185 93.6422 73.1057 92.6294 71.8679 92.6294H26.144C25.9564 92.6294 25.7689 92.5919 25.5813 92.4794L21.0052 89.8538L19.4298 88.916Z" fill="#0077B6"/>
<path d="M43.1733 43.2669H36.8717C36.5716 43.2669 36.3091 43.0044 36.3091 42.7043V36.4027C36.3091 36.1027 36.5716 35.8401 36.8717 35.8401H43.1733C43.4733 35.8401 43.7359 36.1027 43.7359 36.4027V42.7043C43.7359 43.0044 43.4733 43.2669 43.1733 43.2669Z" fill="#0077B6"/>
<path d="M43.1733 52.1568H36.8717C36.5716 52.1568 36.3091 51.8943 36.3091 51.5942V45.2926C36.3091 44.9925 36.5716 44.73 36.8717 44.73H43.1733C43.4733 44.73 43.7359 44.9925 43.7359 45.2926V51.5942C43.7359 51.8943 43.4733 52.1568 43.1733 52.1568Z" fill="#0077B6"/>
<path d="M52.0629 43.2669H45.7613C45.4612 43.2669 45.1987 43.0044 45.1987 42.7043V36.4027C45.1987 36.1027 45.4612 35.8401 45.7613 35.8401H52.0629C52.363 35.8401 52.6255 36.1027 52.6255 36.4027V42.7043C52.6255 43.0044 52.363 43.2669 52.0629 43.2669Z" fill="#0077B6"/>
<path d="M52.0629 52.1568H45.7613C45.4612 52.1568 45.1987 51.8943 45.1987 51.5942V45.2926C45.1987 44.9925 45.4612 44.73 45.7613 44.73H52.0629C52.363 44.73 52.6255 44.9925 52.6255 45.2926V51.5942C52.6255 51.8943 52.363 52.1568 52.0629 52.1568Z" fill="#0077B6"/>
<path d="M51.3127 111.459H36.1214C35.8213 111.459 35.5588 111.197 35.5588 110.896V91.2791C35.5588 90.979 35.8213 90.7164 36.1214 90.7164H51.3127C51.6128 90.7164 51.8754 90.979 51.8754 91.2791V110.896C51.8754 111.197 51.6128 111.459 51.3127 111.459Z" fill="#0077B6"/>
</svg>
